<svg xmlns="http://www.w3.org/2000/svg" xmlns:xlink="http://www.w3.org/1999/xlink" width="218.06" height="234.21" viewBox="0 0 218.06 234.21">
  <defs>
    <style>
      .a {
        fill: url(#a);
      }

      .b {
        fill: url(#b);
      }

      .c {
        fill: url(#c);
      }

      .d {
        fill: url(#d);
      }

      .e {
        fill: url(#e);
      }

      .f {
        fill: url(#f);
      }

      .g {
        fill: url(#g);
      }

      .h {
        fill: url(#h);
      }

      .i {
        fill: url(#i);
      }

      .j {
        fill: url(#j);
      }

      .k {
        fill: url(#k);
      }

      .l {
        fill: url(#l);
      }
    </style>
    <linearGradient id="a" x1="31.2" y1="153.15" x2="155.88" y2="153.15" gradientUnits="userSpaceOnUse">
      <stop offset="0" stop-color="#0ea5e9"/>
      <stop offset="1" stop-color="#082f49"/>
    </linearGradient>
    <linearGradient id="b" x1="93.62" y1="180.13" x2="156.03" y2="180.13" xlink:href="#a"/>
    <linearGradient id="c" x1="31.2" y1="90.05" x2="93.62" y2="90.05" xlink:href="#a"/>
    <linearGradient id="d" x1="0" y1="36.04" x2="155.88" y2="36.04" xlink:href="#a"/>
    <linearGradient id="e" x1="93.62" y1="63.11" x2="124.82" y2="63.11" xlink:href="#a"/>
    <linearGradient id="f" x1="124.82" y1="63.03" x2="156.03" y2="63.03" xlink:href="#a"/>
    <linearGradient id="g" x1="0" y1="135.18" x2="93.62" y2="135.18" xlink:href="#a"/>
    <linearGradient id="h" x1="155.64" y1="180.15" x2="217.9" y2="180.15" gradientUnits="userSpaceOnUse">
      <stop offset="0" stop-color="#6ee7b7"/>
      <stop offset="1" stop-color="#244c44"/>
    </linearGradient>
    <linearGradient id="i" x1="186.85" y1="207.14" x2="218.06" y2="207.14" xlink:href="#h"/>
    <linearGradient id="j" x1="155.64" y1="117.06" x2="186.85" y2="117.06" xlink:href="#h"/>
    <linearGradient id="k" x1="124.44" y1="144.17" x2="186.85" y2="144.17" xlink:href="#h"/>
    <linearGradient id="l" x1="124.44" y1="54.04" x2="186.7" y2="54.04" xlink:href="#h"/>
  </defs>
  <title>Asset 1</title>
  <g>
    <g>
      <polygon class="a" points="155.88 144.14 124.82 162.08 124.68 162.16 93.62 180.09 93.47 180.18 62.41 162.24 62.41 162.07 62.26 162.16 31.2 144.22 31.2 144.06 62.27 126.12 62.41 126.21 93.47 144.14 93.62 144.23 93.62 144.05 124.67 126.12 124.82 126.21 155.88 144.14"/>
      <polygon class="b" points="156.03 144.23 156.03 180.09 155.88 180.17 124.82 198.11 124.67 198.19 93.62 216.12 93.62 180.09 124.68 162.16 124.82 162.24 124.82 162.08 155.88 144.14 156.03 144.23"/>
      <polygon class="c" points="93.62 36.13 93.62 71.98 93.47 72.07 62.41 90 62.26 90.09 62.41 90.18 62.41 126.04 62.27 126.12 31.2 144.06 31.2 71.99 62.27 54.06 62.41 54.14 62.41 53.97 93.47 36.04 93.62 36.13"/>
      <polygon class="d" points="155.88 36.04 124.82 53.97 124.67 54.06 93.62 36.13 93.62 35.95 93.47 36.04 62.41 53.97 62.27 54.06 31.2 71.99 31.05 72.08 0 54.15 0 53.97 31.06 36.04 31.2 36.12 31.2 35.96 62.26 18.02 62.41 18.11 62.41 17.94 93.47 0 93.62 0.09 124.68 18.02 124.82 18.1 155.88 36.04"/>
      <polygon class="e" points="124.82 54.14 124.82 90.01 124.68 90.09 93.62 72.16 93.62 36.13 124.67 54.06 124.82 54.14"/>
      <polygon class="f" points="156.03 36.12 156.03 71.99 155.88 72.08 124.82 90.01 124.82 53.97 155.88 36.04 156.03 36.12"/>
      <polygon class="g" points="93.62 180.26 93.62 216.12 93.47 216.2 62.41 198.27 62.41 198.11 62.27 198.19 31.2 180.25 31.2 180.09 31.06 180.17 0 162.24 0 54.15 31.05 72.08 31.2 72.16 31.2 108.02 31.05 108.1 31.2 108.19 31.2 144.06 31.06 144.14 31.2 144.22 62.26 162.16 62.41 162.24 93.47 180.18 93.62 180.26"/>
    </g>
    <g>
      <polygon class="h" points="217.9 180.16 186.85 198.08 186.7 198.17 155.64 180.24 155.64 180.08 186.7 162.14 186.85 162.23 217.9 180.16"/>
      <polygon class="i" points="218.06 180.25 218.06 216.11 217.91 216.19 186.85 234.12 186.85 198.08 217.9 180.16 218.06 180.25"/>
      <polygon class="j" points="186.85 89.99 186.71 90.08 186.85 90.16 186.85 126.02 186.71 126.1 186.85 126.19 186.85 162.06 186.7 162.14 155.64 180.08 155.64 71.97 186.7 54.04 186.85 54.12 186.85 89.99"/>
      <polygon class="k" points="186.85 198.26 186.85 234.12 186.7 234.21 155.64 216.27 155.64 216.1 155.49 216.19 124.44 198.26 124.44 54.13 155.49 72.06 155.5 72.06 155.64 72.14 155.64 108.01 155.5 108.09 155.64 108.17 155.64 144.04 155.49 144.12 155.64 144.21 155.64 180.08 155.5 180.16 155.64 180.24 186.7 198.17 186.85 198.26"/>
      <polygon class="l" points="186.7 54.04 155.64 71.97 155.5 72.06 155.49 72.06 124.44 54.13 124.44 53.96 155.5 36.02 155.64 36.1 186.7 54.04"/>
    </g>
  </g>
</svg>
