<svg xmlns="http://www.w3.org/2000/svg" xmlns:xlink="http://www.w3.org/1999/xlink" width="311.53" height="216.2" viewBox="0 0 311.53 216.2">
  <defs>
    <style>
      .a {
        fill: url(#a);
      }

      .b {
        fill: url(#b);
      }

      .c {
        fill: url(#c);
      }

      .d {
        fill: url(#d);
      }

      .e {
        fill: url(#e);
      }

      .f {
        fill: url(#f);
      }

      .g {
        fill: url(#g);
      }

      .h {
        fill: url(#h);
      }

      .i {
        fill: url(#i);
      }

      .j {
        fill: url(#j);
      }

      .k {
        fill: url(#k);
      }

      .l {
        fill: none;
      }
    </style>
    <linearGradient id="a" x1="93.47" y1="153.15" x2="218.15" y2="153.15" gradientUnits="userSpaceOnUse">
      <stop offset="0" stop-color="#38bdf8"/>
      <stop offset="1" stop-color="#075985"/>
    </linearGradient>
    <linearGradient id="b" x1="155.89" y1="180.13" x2="218.3" y2="180.13" xlink:href="#a"/>
    <linearGradient id="c" x1="93.47" y1="90.05" x2="155.89" y2="90.05" xlink:href="#a"/>
    <linearGradient id="d" x1="62.27" y1="36.04" x2="218.15" y2="36.04" xlink:href="#a"/>
    <linearGradient id="e" x1="155.89" y1="63.11" x2="187.09" y2="63.11" xlink:href="#a"/>
    <linearGradient id="f" x1="187.09" y1="63.03" x2="218.3" y2="63.03" xlink:href="#a"/>
    <linearGradient id="g" x1="62.27" y1="135.18" x2="155.89" y2="135.18" xlink:href="#a"/>
    <linearGradient id="h" x1="217.91" y1="135.07" x2="311.53" y2="135.07" gradientUnits="userSpaceOnUse">
      <stop offset="0" stop-color="#34d399"/>
      <stop offset="1" stop-color="#065f46"/>
    </linearGradient>
    <linearGradient id="i" x1="249.12" y1="135.08" x2="311.39" y2="135.08" xlink:href="#h"/>
    <linearGradient id="j" x1="186.71" y1="135.16" x2="217.91" y2="135.16" xlink:href="#h"/>
    <linearGradient id="k" x1="186.71" y1="54.04" x2="248.97" y2="54.04" xlink:href="#h"/>
  </defs>
  <title>Asset 4</title>
  <g>
    <g>
      <polygon class="a" points="218.15 144.14 187.09 162.08 186.95 162.16 155.89 180.09 155.74 180.18 124.68 162.24 124.68 162.07 124.53 162.16 93.47 144.22 93.47 144.06 124.54 126.12 124.68 126.21 155.74 144.14 155.89 144.23 155.89 144.05 186.94 126.12 187.09 126.21 218.15 144.14"/>
      <polygon class="b" points="218.3 144.23 218.3 180.09 218.15 180.17 187.09 198.11 186.94 198.19 155.89 216.12 155.89 180.09 186.95 162.16 187.09 162.24 187.09 162.08 218.15 144.14 218.3 144.23"/>
      <polygon class="c" points="155.89 36.13 155.89 71.98 155.74 72.07 124.68 90 124.53 90.09 124.68 90.18 124.68 126.04 124.54 126.12 93.47 144.06 93.47 71.99 124.54 54.06 124.68 54.14 124.68 53.97 155.74 36.04 155.89 36.13"/>
      <polygon class="d" points="218.15 36.04 187.09 53.97 186.94 54.06 155.89 36.13 155.89 35.95 155.74 36.04 124.68 53.97 124.54 54.06 93.47 71.99 93.32 72.08 62.27 54.15 62.27 53.97 93.33 36.04 93.47 36.12 93.47 35.96 124.53 18.02 124.68 18.11 124.68 17.94 155.74 0 155.89 0.09 186.95 18.02 187.09 18.1 218.15 36.04"/>
      <polygon class="e" points="187.09 54.14 187.09 90.01 186.95 90.09 155.89 72.16 155.89 36.13 186.94 54.06 187.09 54.14"/>
      <polygon class="f" points="218.3 36.12 218.3 71.99 218.15 72.08 187.09 90.01 187.09 53.97 218.15 36.04 218.3 36.12"/>
      <polygon class="g" points="155.89 180.26 155.89 216.12 155.74 216.2 124.68 198.27 124.68 198.11 124.54 198.19 93.47 180.25 93.47 180.09 93.33 180.17 62.27 162.24 62.27 54.15 93.32 72.08 93.47 72.16 93.47 108.02 93.32 108.1 93.47 108.19 93.47 144.06 93.33 144.14 93.47 144.22 124.53 162.16 124.68 162.24 155.74 180.18 155.89 180.26"/>
    </g>
    <g>
      <polygon class="h" points="311.53 126.19 311.53 162.05 311.38 162.14 280.33 180.06 280.17 180.16 249.12 198.08 248.97 198.17 217.91 216.1 217.91 71.97 248.97 54.04 249.12 54.12 249.12 89.99 248.98 90.08 249.12 90.16 249.12 126.02 248.98 126.1 249.12 126.19 249.12 162.06 248.97 162.14 249.12 162.23 249.12 162.06 280.18 144.12 280.33 144.21 280.33 144.04 311.39 126.11 311.53 126.19"/>
      <polygon class="i" points="311.39 126.11 280.33 144.04 280.18 144.12 249.12 162.06 249.12 126.02 280.18 108.09 280.33 108.18 311.39 126.11"/>
      <polygon class="j" points="217.91 108.01 217.77 108.09 217.91 108.17 217.91 144.04 217.76 144.12 217.91 144.21 217.91 180.08 217.77 180.16 217.91 180.24 217.91 216.1 217.76 216.19 186.71 198.26 186.71 54.13 217.76 72.06 217.77 72.06 217.91 72.14 217.91 108.01"/>
      <polygon class="k" points="248.97 54.04 217.91 71.97 217.77 72.06 217.76 72.06 186.71 54.13 186.71 53.96 217.77 36.02 217.91 36.1 248.97 54.04"/>
    </g>
    <g>
      <polygon class="l" points="0 126.18 0 162.04 0.15 162.13 31.2 180.05 31.36 180.15 62.41 198.07 62.56 198.16 93.62 216.09 93.62 71.96 62.56 54.03 62.41 54.11 62.41 89.98 62.55 90.07 62.41 90.15 62.41 126.01 62.55 126.09 62.41 126.18 62.41 162.05 62.56 162.13 62.41 162.22 62.41 162.05 31.35 144.11 31.2 144.2 31.2 144.03 0.14 126.1 0 126.18"/>
      <polygon class="l" points="0.14 126.1 31.2 144.03 31.35 144.11 62.41 162.05 62.41 126.01 31.35 108.08 31.2 108.17 0.14 126.1"/>
      <polygon class="l" points="93.62 108 93.76 108.08 93.62 108.16 93.62 144.03 93.77 144.11 93.62 144.2 93.62 180.07 93.76 180.15 93.62 180.23 93.62 216.09 93.77 216.18 124.82 198.25 124.82 54.12 93.77 72.05 93.76 72.05 93.62 72.13 93.62 108"/>
      <polygon class="l" points="62.56 54.03 93.62 71.96 93.76 72.05 93.77 72.05 124.82 54.12 124.82 53.95 93.76 36.01 93.62 36.09 62.56 54.03"/>
    </g>
  </g>
</svg>
